<?xml version="1.0" standalone="no"?>
<!DOCTYPE svg PUBLIC "-//W3C//DTD SVG 20010904//EN"
 "http://www.w3.org/TR/2001/REC-SVG-20010904/DTD/svg10.dtd">
<svg version="1.0" xmlns="http://www.w3.org/2000/svg"
 width="920.000000pt" height="920.000000pt" viewBox="0 0 920.000000 920.000000"
 preserveAspectRatio="xMidYMid meet">

<g transform="translate(0.000000,920.000000) scale(0.100000,-0.100000)"
fill="#000000" stroke="none">
<path d="M4440 9197 c-3 -2 -64 -7 -136 -11 -460 -21 -1028 -153 -1474 -341
-1231 -519 -2173 -1535 -2594 -2796 -111 -334 -186 -701 -221 -1089 -11 -123
-13 -495 -4 -640 54 -840 327 -1635 796 -2317 716 -1043 1821 -1743 3067
-1943 494 -80 1055 -74 1545 16 1152 210 2182 850 2875 1788 490 662 781 1408
880 2256 20 170 26 548 14 775 -52 912 -410 1842 -991 2568 -527 659 -1199
1146 -1994 1447 -349 132 -810 238 -1158 265 -44 4 -91 9 -105 11 -37 6 -494
16 -500 11z m2550 -4187 l0 -1410 -1063 0 -1062 0 0 -305 0 -305 247 0 248 0
0 -105 0 -105 -760 0 -760 0 0 105 0 105 249 0 249 0 1 305 2 305 -1066 0
-1065 0 0 1410 0 1410 2390 0 2390 0 0 -1410z"/>
<path d="M2444 6221 c-2 -2 -4 -548 -4 -1213 l0 -1208 2155 0 2155 0 0 1213 0
1212 -2151 0 c-1183 0 -2153 -2 -2155 -4z"/>
</g>
</svg>
